<svg id="glipy_copy_5" viewBox="0 0 64 64" xmlns="http://www.w3.org/2000/svg" xmlns:xlink="http://www.w3.org/1999/xlink" data-name="glipy copy 5" width="300" height="300" version="1.1" xmlns:svgjs="http://svgjs.dev/svgjs"><g width="100%" height="100%" transform="matrix(1,0,0,1,0,0)"><linearGradient id="linear-gradient" gradientUnits="userSpaceOnUse" x1="2" x2="62" y1="32" y2="32"><stop offset="0" stop-color="#9cffac"/><stop offset="1" stop-color="#00b59c"/></linearGradient><path d="m46.36652 40.78461-2.25183.008q.04824-.53082.04827-1.06158a12.14268 12.14268 0 1 0 -24.23144 1.142 10.87765 10.87765 0 1 1 2.79877-21.48883c2.6903-7.69062 13.75085-7.4679 16.19708.28137a8.55258 8.55258 0 0 1 9.96441 5.19525c8.76752 2.99062 6.74512 15.75777-2.52526 15.92379zm-5.15509 3.9729a12.38194 12.38194 0 0 0 .93286 2.38855.81275.81275 0 0 1 -.83637 1.15814 16.22131 16.22131 0 0 0 -3.02386-.15283 10.40828 10.40828 0 0 1 -6.32923 2.11511c-13.97424-.57636-13.975-20.48889-.00006-21.07074 7.83594-.13556 13.11756 8.75403 9.25666 15.56177zm-14.838-8.11463h5.58136a.80423.80423 0 0 0 0-1.60846h-5.58138a.80432.80432 0 0 0 0 1.60846zm11.16272 6.17646h-11.16268a.80432.80432 0 0 0 -.00006 1.60846h11.16272a.80432.80432 0 0 0 0-1.60846zm0-3.89246h-11.16268a.80432.80432 0 0 0 -.00006 1.60846h11.16272a.80432.80432 0 0 0 0-1.60846zm24.46385-6.92688a30 30 0 1 1 -30-30.00049 30.03428 30.03428 0 0 1 30 30.00049zm-1.70776 0a28.29224 28.29224 0 1 0 -28.29224 28.29169 28.32444 28.32444 0 0 0 28.29224-28.29169z" fill="#75baae" data-original-color="linear-gradient" stroke="none" stroke-opacity="1" fill-opacity="1"/></g></svg>